# File created by Blade
# Date/Time:  Tue Jan 27 19:54:25 2015
# Frame Rate: 120.000 fps
#------------------------------------------------------
:FULLY-SPECIFIED
:DEGREES
1704
root 7.498930 32.507715 -0.965834 -2.891781 -21.968538 -9.514473
Spine 8.348488 13.292522 11.171913
Head 7.413960 -0.970883 -1.805197
LeftShoulder -17.247339 1.427343 26.938836
LeftArm -3.211504 -17.159473 -81.980574
LeftForeArm -33.921788 -0.000000 133.945209
LeftHand 2.400049 0.000000 -17.636388
LeftHandThumb1 -26.253704 0.000000 33.147579
RightShoulder -17.781086 -17.738748 -23.142435
RightArm 6.755974 -24.308235 87.363483
RightForeArm -17.100368 -0.000000 23.317095
RightHand 16.996652 -0.000000 7.745689
RightHandThumb1 -24.326973 -0.000000 -32.862282
LeftUpLeg 8.998434 14.070984 -1.223851
LeftLeg 0.286620 -0.000000 -0.000000
LeftFoot -20.776106 22.900437 -16.725697
LeftToeBase 20.290987 -0.000000 -0.000000
RightUpLeg -83.401320 -21.429895 10.795565
RightLeg 110.651107 -0.000000 -0.000000
RightFoot 13.735557 -35.909799 22.480395
RightToeBase 10.165992 -0.000000 -0.000000
1705
root 7.497344 32.508648 -0.963920 -2.902903 -21.941122 -9.525392
Spine 8.356153 13.303670 11.199567
Head 7.422652 -0.944624 -1.840451
LeftShoulder -17.258022 1.438616 26.892845
LeftArm -3.180346 -17.095947 -81.948786
LeftForeArm -34.050683 -0.000000 133.983177
LeftHand 2.469434 -0.000000 -17.931983
LeftHandThumb1 -26.253704 0.000000 33.147579
RightShoulder -17.777819 -17.735722 -23.136749
RightArm 6.738755 -24.315641 87.397482
RightForeArm -17.154976 -0.000000 23.271601
RightHand 17.019223 0.000000 7.778032
RightHandThumb1 -24.326973 -0.000000 -32.862282
LeftUpLeg 9.019959 14.052940 -1.207446
LeftLeg 0.280049 -0.000000 -0.000000
LeftFoot -20.774863 22.883318 -16.710943
LeftToeBase 20.331098 -0.000000 -0.000000
RightUpLeg -83.375696 -21.395374 10.905776
RightLeg 110.649803 -0.000000 -0.000000
RightFoot 13.711299 -35.944295 22.483201
RightToeBase 10.186476 -0.000000 -0.000000
1706
root 7.497147 32.508201 -0.961995 -2.917781 -21.909456 -9.516129
Spine 8.360526 13.299475 11.201097
Head 7.418909 -0.899164 -1.867141
LeftShoulder -17.283659 1.424322 26.867176
LeftArm -3.185538 -17.049764 -81.909675
LeftForeArm -34.151902 0.000000 134.007420
LeftHand 2.495594 -0.000000 -17.953804
LeftHandThumb1 -26.253704 0.000000 33.147579
RightShoulder -17.760834 -17.735870 -23.133942
RightArm 6.731000 -24.289327 87.437285
RightForeArm -17.211666 -0.000000 23.232145
RightHand 17.023961 -0.000000 7.859059
RightHandThumb1 -24.326973 -0.000000 -32.862282
LeftUpLeg 9.034199 14.037286 -1.213790
LeftLeg 0.273193 -0.000000 -0.000000
LeftFoot -20.767966 22.883713 -16.701973
LeftToeBase 20.393071 -0.000000 -0.000000
RightUpLeg -83.360741 -21.358591 10.965143
RightLeg 110.672086 -0.000000 -0.000000
RightFoot 13.745673 -35.924895 22.501653
RightToeBase 10.094914 -0.000000 -0.000000
1707
root 7.496807 32.507183 -0.960348 -2.929610 -21.873514 -9.508749
Spine 8.355875 13.314227 11.200484
Head 7.429246 -0.888422 -1.876084
LeftShoulder -17.278255 1.419174 26.855934
LeftArm -3.173880 -17.070109 -81.901815
LeftForeArm -34.072021 0.000000 134.010025
LeftHand 2.368092 -0.000000 -17.509179
LeftHandThumb1 -26.253704 0.000000 33.147579
RightShoulder -17.750487 -17.721634 -23.138246
RightArm 6.692862 -24.288539 87.488368
RightForeArm -17.232628 -0.000000 23.197124
RightHand 17.015492 -0.000000 7.956169
RightHandThumb1 -24.326973 -0.000000 -32.862282
LeftUpLeg 9.043772 14.027192 -1.216962
LeftLeg 0.270924 -0.000000 -0.000000
LeftFoot -20.774054 22.848374 -16.721202
LeftToeBase 20.381560 -0.000000 -0.000000
RightUpLeg -83.357718 -21.335164 11.051901
RightLeg 110.689659 -0.000000 -0.000000
RightFoot 13.783566 -35.912403 22.419452
RightToeBase 10.338806 -0.000000 -0.000000
1708
root 7.497095 32.505856 -0.958885 -2.942215 -21.827939 -9.495138
Spine 8.350789 13.313471 11.193216
Head 7.435063 -0.889416 -1.886769
LeftShoulder -17.274800 1.409915 26.849014
LeftArm -3.183049 -17.086255 -81.890421
LeftForeArm -34.051345 -0.000000 134.019569
LeftHand 2.371017 -0.000000 -17.478391
LeftHandThumb1 -26.253704 0.000000 33.147579
RightShoulder -17.742966 -17.716717 -23.144398
RightArm 6.687134 -24.315987 87.524145
RightForeArm -17.201712 0.000000 23.144044
RightHand 17.048828 0.000000 8.026080
RightHandThumb1 -24.326973 -0.000000 -32.862282
LeftUpLeg 9.047433 14.000626 -1.232863
LeftLeg 0.278646 -0.000000 -0.000000
LeftFoot -20.771800 22.839398 -16.680579
LeftToeBase 20.350697 -0.000000 -0.000000
RightUpLeg -83.360138 -21.324846 11.129316
RightLeg 110.716962 -0.000000 -0.000000
RightFoot 13.753542 -35.909170 22.470196
RightToeBase 10.530206 -0.000000 -0.000000
1709
root 7.496162 32.504529 -0.956428 -2.962429 -21.795769 -9.476017
Spine 8.349959 13.321167 11.170441
Head 7.442266 -0.876698 -1.868396
LeftShoulder -17.284799 1.439955 26.855493
LeftArm -3.153988 -17.110881 -81.913171
LeftForeArm -33.953845 -0.000000 134.019256
LeftHand 2.341314 -0.000000 -17.104669
LeftHandThumb1 -26.253704 0.000000 33.147579
RightShoulder -17.730458 -17.722259 -23.137933
RightArm 6.701598 -24.357183 87.547822
RightForeArm -17.178601 0.000000 23.081421
RightHand 17.066664 -0.000000 8.013742
RightHandThumb1 -24.326973 -0.000000 -32.862282
LeftUpLeg 9.068542 14.016283 -1.238701
LeftLeg 0.259901 -0.000000 -0.000000
LeftFoot -20.733255 22.794790 -16.677265
LeftToeBase 20.353670 -0.000000 -0.000000
RightUpLeg -83.360328 -21.307217 11.207335
RightLeg 110.749444 -0.000000 -0.000000
RightFoot 13.814745 -35.895751 22.422369
RightToeBase 10.108046 -0.000000 -0.000000
1710
root 7.496378 32.503241 -0.954968 -2.972037 -21.743559 -9.459582
Spine 8.338744 13.310392 11.156707
Head 7.451680 -0.857704 -1.879077
LeftShoulder -17.288169 1.435333 26.866903
LeftArm -3.171513 -17.161785 -81.924883
LeftForeArm -33.950460 -0.000000 134.001365
LeftHand 2.302329 -0.000000 -17.117324
LeftHandThumb1 -26.253704 0.000000 33.147579
RightShoulder -17.721484 -17.723563 -23.144855
RightArm 6.702288 -24.394870 87.579982
RightForeArm -17.169857 -0.000000 23.039324
RightHand 17.063562 -0.000000 7.930023
RightHandThumb1 -24.326973 -0.000000 -32.862282
LeftUpLeg 9.070007 14.014232 -1.251885
LeftLeg 0.257947 -0.000000 -0.000000
LeftFoot -20.726139 22.764303 -16.655333
LeftToeBase 20.380570 -0.000000 -0.000000
RightUpLeg -83.365968 -21.304658 11.271285
RightLeg 110.780061 -0.000000 -0.000000
RightFoot 13.844790 -35.867525 22.453903
RightToeBase 10.098280 -0.000000 -0.000000
1711
root 7.496633 32.501889 -0.952467 -2.986761 -21.694524 -9.438269
Spine 8.332534 13.301893 11.136653
Head 7.450444 -0.865905 -1.880309
LeftShoulder -17.298780 1.427066 26.891701
LeftArm -3.191452 -17.210397 -81.947064
LeftForeArm -33.964314 0.000000 133.974775
LeftHand 2.298480 -0.000000 -17.197075
LeftHandThumb1 -26.253704 0.000000 33.147579
RightShoulder -17.714743 -17.704556 -23.152528
RightArm 6.680637 -24.435150 87.607460
RightForeArm -17.155696 -0.000000 23.018012
RightHand 17.085269 -0.000000 7.927966
RightHandThumb1 -24.326973 -0.000000 -32.862282
LeftUpLeg 9.076946 14.012665 -1.267158
LeftLeg 0.258394 -0.000000 -0.000000
LeftFoot -20.706029 22.729624 -16.628010
LeftToeBase 20.338357 -0.000000 -0.000000
RightUpLeg -83.373493 -21.310396 11.350594
RightLeg 110.806777 -0.000000 -0.000000
RightFoot 14.250180 -35.797621 21.977247
RightToeBase 9.614978 -0.000000 -0.000000
1712
root 7.495786 32.500675 -0.950202 -3.006827 -21.630600 -9.424543
Spine 8.333620 13.287857 11.121768
Head 7.455158 -0.870049 -1.872562
LeftShoulder -17.297769 1.427373 26.913911
LeftArm -3.189730 -17.254805 -81.965525
LeftForeArm -34.036763 -0.000000 133.941272
LeftHand 2.270109 -0.000000 -17.264508
LeftHandThumb1 -26.253704 0.000000 33.147579
RightShoulder -17.726506 -17.715872 -23.141812
RightArm 6.687415 -24.464083 87.620064
RightForeArm -17.132570 -0.000000 23.012867
RightHand 17.064597 -0.000000 7.905813
RightHandThumb1 -24.326973 -0.000000 -32.862282
LeftUpLeg 9.090088 13.981171 -1.274331
LeftLeg 0.255316 -0.000000 -0.000000
LeftFoot -20.693083 22.711432 -16.649791
LeftToeBase 20.302072 -0.000000 -0.000000
RightUpLeg -83.379620 -21.327205 11.419942
RightLeg 110.862078 -0.000000 -0.000000
RightFoot 13.879373 -35.906529 22.388124
RightToeBase 10.149695 -0.000000 -0.000000
1713
root 7.494934 32.500085 -0.947354 -3.038721 -21.582570 -9.407476
Spine 8.352819 13.295585 11.112118
Head 7.458546 -0.895053 -1.876244
LeftShoulder -17.283289 1.420271 26.934989
LeftArm -3.187364 -17.298937 -81.983972
LeftForeArm -34.067996 -0.000000 133.895816
LeftHand 2.290232 -0.000000 -17.301444
LeftHandThumb1 -26.253704 0.000000 33.147579
RightShoulder -17.743777 -17.732053 -23.124642
RightArm 6.698017 -24.459201 87.628287
RightForeArm -17.105043 -0.000000 23.012646
RightHand 17.048880 0.000000 7.909704
RightHandThumb1 -24.326973 -0.000000 -32.862282
LeftUpLeg 9.119087 13.975260 -1.278991
LeftLeg 0.252488 -0.000000 -0.000000
LeftFoot -20.679248 22.660594 -16.650031
LeftToeBase 20.273358 -0.000000 -0.000000
RightUpLeg -83.362140 -21.330316 11.465572
RightLeg 110.913194 -0.000000 -0.000000
RightFoot 13.754820 -35.891343 22.604110
RightToeBase 10.297640 -0.000000 -0.000000
1714
root 7.495308 32.499379 -0.945121 -3.058226 -21.525688 -9.390497
Spine 8.360247 13.288186 11.106818
Head 7.461175 -0.903293 -1.892493
LeftShoulder -17.267858 1.380103 26.947072
LeftArm -3.238194 -17.338986 -81.955247
LeftForeArm -34.169199 -0.000000 133.871502
LeftHand 2.418324 0.000000 -17.688854
LeftHandThumb1 -26.253704 0.000000 33.147579
RightShoulder -17.754339 -17.733730 -23.124878
RightArm 6.693597 -24.469905 87.643045
RightForeArm -17.119747 0.000000 23.016666
RightHand 17.036297 -0.000000 7.899828
RightHandThumb1 -24.326973 -0.000000 -32.862282
LeftUpLeg 9.126074 13.934544 -1.295748
LeftLeg 0.259002 -0.000000 -0.000000
LeftFoot -20.682010 22.659338 -16.639362
LeftToeBase 20.375745 -0.000000 -0.000000
RightUpLeg -83.367559 -21.359383 11.539983
RightLeg 110.945562 -0.000000 -0.000000
RightFoot 14.210913 -35.750944 22.066043
RightToeBase 9.636828 -0.000000 -0.000000
1715
root 7.495609 32.499109 -0.942803 -3.074330 -21.468584 -9.379963
Spine 8.364080 13.283242 11.108943
Head 7.471889 -0.919577 -1.907246
LeftShoulder -17.253191 1.362775 26.950932
LeftArm -3.252743 -17.355783 -81.929386
LeftForeArm -34.285504 -0.000000 133.833648
LeftHand 2.483066 0.000000 -18.086437
LeftHandThumb1 -26.253704 0.000000 33.147579
RightShoulder -17.763850 -17.735906 -23.116496
RightArm 6.683388 -24.463795 87.643021
RightForeArm -17.105429 -0.000000 23.039669
RightHand 17.009274 0.000000 7.933343
RightHandThumb1 -24.326973 -0.000000 -32.862282
LeftUpLeg 9.130469 13.915479 -1.304384
LeftLeg 0.271390 -0.000000 -0.000000
LeftFoot -20.652938 22.651716 -16.555779
LeftToeBase 20.321807 -0.000000 -0.000000
RightUpLeg -83.370968 -21.391801 11.607660
RightLeg 110.985969 -0.000000 -0.000000
RightFoot 14.028276 -35.783556 22.297290
RightToeBase 10.128117 -0.000000 -0.000000
1716
root 7.496037 32.499102 -0.940873 -3.090786 -21.414586 -9.377292
Spine 8.377054 13.269426 11.126675
Head 7.478949 -0.920550 -1.947935
LeftShoulder -17.250697 1.349955 26.939563
LeftArm -3.253783 -17.373648 -81.891522
LeftForeArm -34.298917 -0.000000 133.793088
LeftHand 2.499546 -0.000000 -18.084747
LeftHandThumb1 -26.253704 0.000000 33.147579
RightShoulder -17.765069 -17.739101 -23.122969
RightArm 6.689129 -24.466129 87.643268
RightForeArm -17.071886 -0.000000 23.053673
RightHand 16.992945 -0.000000 7.960515
RightHandThumb1 -24.326973 -0.000000 -32.862282
LeftUpLeg 9.139913 13.874734 -1.310792
LeftLeg 0.281918 -0.000000 -0.000000
LeftFoot -20.669154 22.642217 -16.557718
LeftToeBase 20.422692 -0.000000 -0.000000
RightUpLeg -83.373781 -21.424615 11.683648
RightLeg 111.008746 -0.000000 -0.000000
RightFoot 13.988338 -35.818241 22.366303
RightToeBase 10.379179 -0.000000 -0.000000
